<?xml version="1.0" standalone="no"?><!DOCTYPE svg PUBLIC "-//W3C//DTD SVG 1.1//EN" "http://www.w3.org/Graphics/SVG/1.1/DTD/svg11.dtd"><svg class="icon" width="200px" height="200.00px" viewBox="0 0 1024 1024" version="1.1" xmlns="http://www.w3.org/2000/svg"><path fill="#6d9b7e" d="M767.954134 955.324873c-244.841646 141.354078-557.928342 57.471761-699.303753-187.369886C-72.661031 523.11334 11.221287 210.026645 256.062933 68.651234c244.841646-141.332744 557.928342-57.450427 699.303753 187.391219 141.332744 244.841646 57.450427 557.928342-187.391219 699.303753z m-10.239958-17.727926c235.049687-135.722101 315.582685-436.264849 179.881917-671.314537C801.873992 31.232723 501.331244-49.300275 266.281557 86.400493 31.23187 222.101261-49.301128 522.665342 86.39964 757.71503c135.700768 235.049687 436.264849 315.582685 671.314536 179.881917z m-21.759909-37.67451c-214.228441 123.690151-488.168633 50.282457-611.880117-163.967317C0.383998 521.705346 73.813026 247.765154 288.041466 124.075003 502.269907 0.384852 776.210099 73.813879 899.921584 288.020987c123.690151 214.249774 50.282457 488.189966-163.967317 611.880117z m-6.826638-11.839951c207.721801-119.914167 278.889505-385.491727 158.954004-593.213528C768.167466 87.147157 502.611239 15.979453 294.868105 135.89362 87.146304 255.829121 15.9786 521.385348 135.892767 729.128482c119.914167 207.721801 385.491727 278.889505 593.213528 158.954004z m72.405031-253.865609l18.005259-9.919958a273.065529 273.065529 0 0 1-127.935467 167.551302 273.150862 273.150862 0 0 1-219.433753 23.978566l18.026592-9.941292c63.402402 16.277266 132.991446 8.725297 194.153858-26.602555a258.40959 258.40959 0 0 0 117.183511-145.066063zM514.621856 211.071974a258.174924 258.174924 0 0 0-153.642027 33.66386 258.174924 258.174924 0 0 0-103.636901 111.274203l-21.077246 11.882617a272.702864 272.702864 0 0 1 117.460844-135.722101 272.74553 272.74553 0 0 1 181.972575-32.981196l-21.077245 11.882617z"  /><path fill="#ea5353" d="M308.692047 838.46136L151.914034 566.953158l83.135653-47.9998c-5.802642-22.037242-10.282624-36.778513-13.41861-44.223816l49.57846-25.151895c2.538656 12.394615 5.631977 26.773222 9.301294 43.13582l128.596798-74.239691 156.75668 271.486869-41.578494 23.9999-11.242619-19.477252-175.35927 101.247578 11.24262 19.477252-40.277165 23.253237zM211.668451 577.49178l23.253237 40.255833 175.359269-101.247578-23.253236-40.255833-175.35927 101.247578z m84.010317 145.492728l23.253236 40.255832 175.35927-101.247578-23.253237-40.255833-175.359269 101.247579z m-42.005158-72.746364l23.253236 40.255832 175.359269-101.247578-23.253236-40.255832-175.359269 101.247578zM465.064729 398.292527l-18.751922-32.469198 154.602023-89.236961 18.730588 32.469198-14.293274 8.255965 97.514261 168.873963 19.839917-16.63993c6.613306 13.48261 13.119945 24.746564 19.498585 33.770526a193.023196 193.023196 0 0 0-19.839917 16.63993l33.749193 58.45309-35.071854 20.266582-30.741205-53.269111a3602.267657 3602.267657 0 0 0-95.487602 77.631676l-26.197225-33.365194 21.887909-16.1066-107.24222-185.769892-18.197257 10.517289z m438.931504 91.26362c-37.48251-4.906646-67.626385-11.157287-90.495623-18.773255-5.098645 27.199887-14.634606 58.687755-28.586547 94.484939-11.221287-7.402636-25.066562-14.39994-41.599827-21.034579 15.9786-32.319865 25.770559-63.359736 29.354545-93.162278-39.786501-20.90658-84.010317-63.509069-132.671448-127.786134l16.490598-16.426599-22.079908 12.735947-20.266582-35.071854 137.706093-79.509002 20.266582 35.071854c31.317203 74.282357 46.933138 136.319432 46.762472 186.025892 25.237228 9.706626 54.463773 15.338603 87.700968 16.917263a477.438011 477.438011 0 0 0-1.919992 23.637235 184.959229 184.959229 0 0 1-0.639997 22.890571z m-169.57796-227.711051l-61.055745 35.242519c32.853196 46.869138 66.559723 82.260991 101.119578 106.154225-1.386661-38.442506-14.741272-85.567643-40.063833-141.396744z m-113.130195 287.01747a1148.944546 1148.944546 0 0 0 49.493127-37.247844l-20.991912-36.373182-53.247779 30.762538 24.746564 42.879822z m-64.511731-111.700868l22.506573 38.954505 53.269111-30.741205-22.506573-38.975838-53.269111 30.762538z m-39.743835-68.863713l23.253237 40.277166 53.247778-30.741205-23.253237-40.277166-53.247778 30.741205z"  /></svg>